<?xml version="1.0" encoding="utf-8"?>
<!-- Generator: Adobe Illustrator 21.0.0, SVG Export Plug-In . SVG Version: 6.00 Build 0)  -->
<svg version="1.1" id="灯泡" xmlns="http://www.w3.org/2000/svg" xmlns:xlink="http://www.w3.org/1999/xlink" x="0px" y="0px"
	 viewBox="0 0 92.8 134.4" style="enable-background:new 0 0 92.8 134.4;" xml:space="preserve">
<style type="text/css">
	.st0{}
	.st1{fill:none;stroke:white;stroke-width:4;stroke-linecap:round;stroke-linejoin:round;}
</style>
<g>
	<path id="椭圆_4" class="st0" d="M46.4,0C72,0,92.8,20.8,92.8,46.4S72,92.8,46.4,92.8S0,72,0,46.4S20.8,0,46.4,0L46.4,0z
		 M23.4,75.4h46c2.8,0,5,2.2,5,5v15c0,2.8-2.2,5-5,5h-46c-2.8,0-5-2.2-5-5v-15C18.4,77.6,20.6,75.4,23.4,75.4z"/>
	<path id="圆角矩形_11" class="st0" d="M25.4,106.4h38c1.7,0,3,1.3,3,3l0,0c0,1.7-1.3,3-3,3h-38c-1.7,0-3-1.3-3-3l0,0
		C22.4,107.7,23.7,106.4,25.4,106.4z"/>
	<path id="圆角矩形_11-2" class="st0" d="M31.4,117.4h26c1.7,0,3,1.3,3,3l0,0c0,1.7-1.3,3-3,3h-26c-1.7,0-3-1.3-3-3l0,0
		C28.4,118.7,29.7,117.4,31.4,117.4z"/>
	<path id="圆角矩形_11-3" class="st0" d="M35.4,128.4h18c1.7,0,3,1.3,3,3l0,0c0,1.7-1.3,3-3,3h-18c-1.7,0-3-1.3-3-3l0,0
		C32.4,129.7,33.7,128.4,35.4,128.4z"/>
</g>
<path id="形状_1_2_" class="st1" d="M59,17.2c8.3,3.2,17.9,11,17.9,30.5"/>
</svg>
