<svg xmlns="http://www.w3.org/2000/svg" viewBox="0 0 306 69"><defs><style>.cls-1{fill:#f7fdf1;stroke:#a2cc77;stroke-miterlimit:10;stroke-width:2px;}.cls-2,.cls-5{fill:#66a822;}.cls-3{fill:#fff;}.cls-4{fill:none;}.cls-5{font-size:22px;font-family:PingFangSC-Regular-GBpc-EUC-H, PingFang SC;}</style></defs><title>资源 6</title><g id="图层_2" data-name="图层 2"><g id="图层_1-2" data-name="图层 1"><rect class="cls-1" x="1" y="1" width="304" height="67" rx="6" ry="6"/><line class="cls-1" x1="80.44" y1="1" x2="80.44" y2="68"/><path class="cls-2" d="M55.62,48.19a10.43,10.43,0,0,0,4-8.09c0-6.06-5.54-11-12.38-11S34.87,34,34.87,40.1a9.83,9.83,0,0,0,.24,2.16c1.13,5,6.14,8.82,12.14,8.82a13.59,13.59,0,0,0,5.81-1.28l3.56,1.5-1.07-3ZM42.3,37.51a1.61,1.61,0,1,1,1.61-1.61A1.61,1.61,0,0,1,42.3,37.51Zm9.47,0a1.61,1.61,0,1,1,1.61-1.61A1.61,1.61,0,0,1,51.77,37.51Z"/><circle class="cls-3" cx="42.3" cy="35.9" r="1.61"/><circle class="cls-3" cx="51.77" cy="35.9" r="1.61"/><circle class="cls-3" cx="38.97" cy="26.11" r="1.94"/><circle class="cls-3" cx="41.97" cy="36.11" r="1.94"/><circle class="cls-3" cx="51.97" cy="36.11" r="1.94"/><circle class="cls-3" cx="26.97" cy="26.11" r="1.94"/><circle class="cls-3" cx="23.97" cy="29.11" r="1.94"/><rect class="cls-3" x="23.46" y="23.29" width="7" height="5"/><circle class="cls-4" cx="38.97" cy="26.11" r="1.94"/><circle class="cls-4" cx="27.13" cy="26.11" r="1.94"/><path class="cls-2" d="M46.7,28.27c-1-6-6.91-10.56-14-10.56-7.84,0-14.2,5.54-14.2,12.38a11.88,11.88,0,0,0,5.49,9.78l.05,0-1.61,4.29,5.23-2.52a16,16,0,0,0,5,.8c.51,0,1,0,1.51-.07a10.59,10.59,0,0,1-.25-2.3C33.91,33.72,39.58,28.53,46.7,28.27ZM39,24.17A1.94,1.94,0,1,1,37,26.11,1.94,1.94,0,0,1,39,24.17ZM27.13,28a1.94,1.94,0,1,1,1.94-1.94A1.94,1.94,0,0,1,27.13,28Z"/><text class="cls-5" transform="translate(123.69 41.41)">微信账号登录</text></g></g></svg>